<svg width="34" height="34" viewBox="0 0 34 34" fill="none" xmlns="http://www.w3.org/2000/svg">
<g filter="url(#filter0_d_1_3)">
<path d="M26.2248 2.09307C26.4297 2.09307 26.5958 1.92697 26.5958 1.72207C26.5958 1.51718 26.4297 1.35107 26.2248 1.35107C26.0199 1.35107 25.8538 1.51718 25.8538 1.72207C25.8538 1.92697 26.0199 2.09307 26.2248 2.09307Z" fill="url(#paint0_linear_1_3)"/>
</g>
<g filter="url(#filter1_d_1_3)">
<path d="M7.21744 12.4929C7.44169 12.4929 7.62348 12.3111 7.62348 12.0869C7.62348 11.8626 7.44169 11.6808 7.21744 11.6808C6.99319 11.6808 6.8114 11.8626 6.8114 12.0869C6.8114 12.3111 6.99319 12.4929 7.21744 12.4929Z" fill="url(#paint1_linear_1_3)"/>
</g>
<g filter="url(#filter2_d_1_3)">
<path d="M3.03531 24.386C3.25956 24.386 3.44135 24.2043 3.44135 23.98C3.44135 23.7558 3.25956 23.574 3.03531 23.574C2.81106 23.574 2.62927 23.7558 2.62927 23.98C2.62927 24.2043 2.81106 24.386 3.03531 24.386Z" fill="url(#paint2_linear_1_3)"/>
</g>
<g filter="url(#filter3_d_1_3)">
<path d="M8.06069 20.7754C8.14713 20.7754 8.21721 20.7054 8.21721 20.6189C8.21721 20.5325 8.14713 20.4624 8.06069 20.4624C7.97425 20.4624 7.90417 20.5325 7.90417 20.6189C7.90417 20.7054 7.97425 20.7754 8.06069 20.7754Z" fill="url(#paint3_linear_1_3)"/>
</g>
<g filter="url(#filter4_d_1_3)">
<path d="M14.0574 8.14059C14.1932 8.14059 14.3033 8.03047 14.3033 7.89463C14.3033 7.7588 14.1932 7.64868 14.0574 7.64868C13.9215 7.64868 13.8114 7.7588 13.8114 7.89463C13.8114 8.03047 13.9215 8.14059 14.0574 8.14059Z" fill="url(#paint4_linear_1_3)"/>
</g>
<g filter="url(#filter5_d_1_3)">
<path d="M25.6339 13.8817C25.5224 13.8657 25.4428 13.7706 25.4439 13.6524C25.4387 12.5971 25.3184 12.4331 24.3406 12.1777C24.228 12.1473 24.1535 12.0388 24.1695 11.9274C24.1857 11.8145 24.2857 11.7341 24.4027 11.7335C25.4102 11.7374 25.5498 11.6343 25.8773 10.6282C25.9138 10.5166 26.0138 10.4473 26.1238 10.4631C26.2368 10.4793 26.3148 10.5741 26.3168 10.6928C26.3191 11.7461 26.4394 11.9101 27.4157 12.1653C27.5311 12.1976 27.6045 12.3029 27.5881 12.4173C27.5722 12.5287 27.4752 12.6095 27.3551 12.6097C26.3456 12.6087 26.2078 12.7105 25.8834 13.717C25.8436 13.8296 25.7422 13.8972 25.6339 13.8817Z" fill="url(#paint5_linear_1_3)"/>
</g>
<path d="M18.3516 8.99378C18.1406 9.07348 18 9.27498 18 9.49998C18 9.72498 18.1406 9.92658 18.3516 10.0063L21 11L21.9938 13.6485C22.0735 13.8594 22.275 14 22.5 14C22.725 14 22.9266 13.8594 23.0063 13.6485L24 11L26.6485 10.0063C26.8594 9.92658 27 9.72498 27 9.49998C27 9.27498 26.8594 9.07348 26.6485 8.99378L24 7.99997L23.0063 5.35156C22.9266 5.14062 22.725 5 22.5 5C22.275 5 22.0735 5.14062 21.9938 5.35156L21 7.99997L18.3516 8.99378ZM12.6141 8.43597C12.4922 8.16877 12.225 7.99997 11.9344 7.99997C11.6438 7.99997 11.3766 8.16877 11.2547 8.43597L8.7797 13.7797L3.43594 16.25C3.16875 16.3719 3 16.6391 3 16.9344C3 17.2297 3.16875 17.4922 3.43594 17.6141L8.78438 20.0844L11.25 25.4282C11.3719 25.6953 11.6391 25.8641 11.9297 25.8641C12.2203 25.8641 12.4875 25.6953 12.6094 25.4282L15.0797 20.0797L20.4281 17.6094C20.6953 17.4875 20.8641 17.2203 20.8641 16.9297C20.8641 16.6391 20.6953 16.3719 20.4281 16.25L15.0844 13.7844L12.6141 8.43597ZM21 23L18.3516 23.9938C18.1406 24.0735 18 24.275 18 24.5C18 24.725 18.1406 24.9266 18.3516 25.0063L21 26L21.9938 28.6485C22.0735 28.8594 22.275 29 22.5 29C22.725 29 22.9266 28.8594 23.0063 28.6485L24 26L26.6485 25.0063C26.8594 24.9266 27 24.725 27 24.5C27 24.275 26.8594 24.0735 26.6485 23.9938L24 23L23.0063 20.3516C22.9266 20.1407 22.725 20 22.5 20C22.275 20 22.0735 20.1407 21.9938 20.3516L21 23Z" fill="url(#paint6_linear_1_3)"/>
<defs>
<filter id="filter0_d_1_3" x="25.5123" y="1.00959" width="1.42492" height="1.42498" filterUnits="userSpaceOnUse" color-interpolation-filters="sRGB">
<feFlood flood-opacity="0" result="BackgroundImageFix"/>
<feColorMatrix in="SourceAlpha" type="matrix" values="0 0 0 0 0 0 0 0 0 0 0 0 0 0 0 0 0 0 127 0" result="hardAlpha"/>
<feOffset/>
<feGaussianBlur stdDeviation="0.170743"/>
<feComposite in2="hardAlpha" operator="out"/>
<feColorMatrix type="matrix" values="0 0 0 0 0.592157 0 0 0 0 0.392157 0 0 0 0 1 0 0 0 1 0"/>
<feBlend mode="normal" in2="BackgroundImageFix" result="effect1_dropShadow_1_3"/>
<feBlend mode="normal" in="SourceGraphic" in2="effect1_dropShadow_1_3" result="shape"/>
</filter>
<filter id="filter1_d_1_3" x="5.9255" y="10.7949" width="2.58393" height="2.58387" filterUnits="userSpaceOnUse" color-interpolation-filters="sRGB">
<feFlood flood-opacity="0" result="BackgroundImageFix"/>
<feColorMatrix in="SourceAlpha" type="matrix" values="0 0 0 0 0 0 0 0 0 0 0 0 0 0 0 0 0 0 127 0" result="hardAlpha"/>
<feOffset/>
<feGaussianBlur stdDeviation="0.442949"/>
<feComposite in2="hardAlpha" operator="out"/>
<feColorMatrix type="matrix" values="0 0 0 0 0.592157 0 0 0 0 0.392157 0 0 0 0 1 0 0 0 1 0"/>
<feBlend mode="normal" in2="BackgroundImageFix" result="effect1_dropShadow_1_3"/>
<feBlend mode="normal" in="SourceGraphic" in2="effect1_dropShadow_1_3" result="shape"/>
</filter>
<filter id="filter2_d_1_3" x="1.74337" y="22.6881" width="2.58393" height="2.58387" filterUnits="userSpaceOnUse" color-interpolation-filters="sRGB">
<feFlood flood-opacity="0" result="BackgroundImageFix"/>
<feColorMatrix in="SourceAlpha" type="matrix" values="0 0 0 0 0 0 0 0 0 0 0 0 0 0 0 0 0 0 127 0" result="hardAlpha"/>
<feOffset/>
<feGaussianBlur stdDeviation="0.442949"/>
<feComposite in2="hardAlpha" operator="out"/>
<feColorMatrix type="matrix" values="0 0 0 0 0.592157 0 0 0 0 0.392157 0 0 0 0 1 0 0 0 1 0"/>
<feBlend mode="normal" in2="BackgroundImageFix" result="effect1_dropShadow_1_3"/>
<feBlend mode="normal" in="SourceGraphic" in2="effect1_dropShadow_1_3" result="shape"/>
</filter>
<filter id="filter3_d_1_3" x="7.56269" y="20.1209" width="0.99596" height="0.996021" filterUnits="userSpaceOnUse" color-interpolation-filters="sRGB">
<feFlood flood-opacity="0" result="BackgroundImageFix"/>
<feColorMatrix in="SourceAlpha" type="matrix" values="0 0 0 0 0 0 0 0 0 0 0 0 0 0 0 0 0 0 127 0" result="hardAlpha"/>
<feOffset/>
<feGaussianBlur stdDeviation="0.170743"/>
<feComposite in2="hardAlpha" operator="out"/>
<feColorMatrix type="matrix" values="0 0 0 0 0.592157 0 0 0 0 0.392157 0 0 0 0 1 0 0 0 1 0"/>
<feBlend mode="normal" in2="BackgroundImageFix" result="effect1_dropShadow_1_3"/>
<feBlend mode="normal" in="SourceGraphic" in2="effect1_dropShadow_1_3" result="shape"/>
</filter>
<filter id="filter4_d_1_3" x="13.2748" y="7.11206" width="1.56519" height="1.56513" filterUnits="userSpaceOnUse" color-interpolation-filters="sRGB">
<feFlood flood-opacity="0" result="BackgroundImageFix"/>
<feColorMatrix in="SourceAlpha" type="matrix" values="0 0 0 0 0 0 0 0 0 0 0 0 0 0 0 0 0 0 127 0" result="hardAlpha"/>
<feOffset/>
<feGaussianBlur stdDeviation="0.268311"/>
<feComposite in2="hardAlpha" operator="out"/>
<feColorMatrix type="matrix" values="0 0 0 0 0.592157 0 0 0 0 0.392157 0 0 0 0 1 0 0 0 1 0"/>
<feBlend mode="normal" in2="BackgroundImageFix" result="effect1_dropShadow_1_3"/>
<feBlend mode="normal" in="SourceGraphic" in2="effect1_dropShadow_1_3" result="shape"/>
</filter>
<filter id="filter5_d_1_3" x="22.0369" y="8.88509" width="7.68402" height="7.68395" filterUnits="userSpaceOnUse" color-interpolation-filters="sRGB">
<feFlood flood-opacity="0" result="BackgroundImageFix"/>
<feColorMatrix in="SourceAlpha" type="matrix" values="0 0 0 0 0 0 0 0 0 0 0 0 0 0 0 0 0 0 127 0" result="hardAlpha"/>
<feOffset dy="0.554677"/>
<feGaussianBlur stdDeviation="1.06523"/>
<feComposite in2="hardAlpha" operator="out"/>
<feColorMatrix type="matrix" values="0 0 0 0 0.296824 0 0 0 0 0.244184 0 0 0 0 0.404167 0 0 0 0.6 0"/>
<feBlend mode="normal" in2="BackgroundImageFix" result="effect1_dropShadow_1_3"/>
<feBlend mode="normal" in="SourceGraphic" in2="effect1_dropShadow_1_3" result="shape"/>
</filter>
<linearGradient id="paint0_linear_1_3" x1="25.8757" y1="1.68369" x2="26.6134" y2="1.69918" gradientUnits="userSpaceOnUse">
<stop stop-color="#2AD7AE"/>
<stop offset="1" stop-color="#0DF0FF"/>
</linearGradient>
<linearGradient id="paint1_linear_1_3" x1="6.83546" y1="12.0449" x2="7.64279" y2="12.0619" gradientUnits="userSpaceOnUse">
<stop offset="0.9999" stop-color="#2AD7AE"/>
<stop offset="1" stop-color="#0D9AFF"/>
</linearGradient>
<linearGradient id="paint2_linear_1_3" x1="2.65333" y1="23.938" x2="3.46066" y2="23.955" gradientUnits="userSpaceOnUse">
<stop offset="0.9999" stop-color="#2AD7AE"/>
<stop offset="1" stop-color="#0D9AFF"/>
</linearGradient>
<linearGradient id="paint3_linear_1_3" x1="7.91345" y1="20.6027" x2="8.22465" y2="20.6093" gradientUnits="userSpaceOnUse">
<stop stop-color="#74FF71"/>
<stop offset="1" stop-color="#0D9AFF"/>
</linearGradient>
<linearGradient id="paint4_linear_1_3" x1="13.826" y1="7.86919" x2="14.315" y2="7.87946" gradientUnits="userSpaceOnUse">
<stop stop-color="#2AD7AE"/>
<stop offset="1" stop-color="#0DFFE2"/>
</linearGradient>
<linearGradient id="paint5_linear_1_3" x1="27.5122" y1="12.226" x2="24.1033" y2="11.8103" gradientUnits="userSpaceOnUse">
<stop stop-color="#2AD7AE"/>
<stop offset="1" stop-color="#0DFFF0"/>
</linearGradient>
<linearGradient id="paint6_linear_1_3" x1="3.71111" y1="15.7586" x2="27.571" y2="16.2596" gradientUnits="userSpaceOnUse">
<stop stop-color="#2AD7AE"/>
<stop offset="1" stop-color="#0DFFF0"/>
</linearGradient>
</defs>
</svg>
